# xmcd
#
# Track frame offsets: 
#        187
#        14250
#        34290
#        58795
#        82485
#        96940
#        110962
#        131455
#        150497
#        172395
#
# Disc length: 2520 seconds
#
# Revision: 2
# Processed by: cddbd v1.4PL0 Copyright (c) Steve Scherf et al.
# Submitted via: ExactAudioCopy v0.95a3
#
DISCID=9009d60a
DTITLE=Cal Tjader - Carmen McRae - Heat Wave
DYEAR=1982
DGENRE=Jazz
TTITLE0=Heat Wave
TTITLE1=All In Love Is Fair
TTITLE2=Besame Mucho
TTITLE3=Evil Ways
TTITLE4=Do Nothing Till You Hear From Me
TTITLE5=Love
TTITLE6=Upside Down
TTITLE7=The Visit
TTITLE8=Speak Low
TTITLE9=Don't You Worry 'Bout A Thing
EXTD=
EXTT0=
EXTT1=
EXTT2=
EXTT3=
EXTT4=
EXTT5=
EXTT6=
EXTT7=
EXTT8=
EXTT9=
PLAYORDER=
